# Blender v2.92.0 OBJ File: ''
# www.blender.org
mtllib GOAT.mtl
o Cube_Cube.001
v -0.684519 1.490132 0.271684
v -0.529456 1.386755 -0.198282
v -0.684519 0.726536 0.271685
v -0.529456 0.829913 -0.198282
v 0.595956 1.428392 0.271685
v 0.507854 1.310698 -0.187828
v 0.595956 0.788277 0.271685
v 0.530151 0.933345 -0.189706
v -0.795572 1.108334 0.271685
v 0.000000 0.726536 0.271685
v 0.728868 1.108334 0.271685
v 0.000000 1.490132 0.271684
v 0.000000 1.108334 0.417882
v 0.605416 0.986932 0.565849
v 0.605416 0.809119 0.565849
v 0.286618 0.809119 0.565849
v 0.286618 0.986932 0.565849
v 0.505381 0.931136 1.103258
v 0.505381 0.864914 1.103258
v 0.386654 0.864914 1.103258
v 0.386654 0.931136 1.103258
v 0.290144 1.385208 0.563190
v 0.598429 1.385208 0.563190
v 0.598429 1.213259 0.563190
v 0.290144 1.213259 0.563190
v 0.375763 1.337453 1.097616
v 0.512810 1.337453 1.097616
v 0.512810 1.261014 1.097616
v 0.375763 1.261014 1.097616
v -0.683754 1.182330 0.568048
v -0.607626 1.416137 0.568048
v -0.400780 1.416137 0.568048
v -0.400780 1.182330 0.568048
v -0.795497 1.182330 0.694367
v -0.719370 1.416137 0.694367
v -0.512524 1.416137 0.694367
v -0.512524 1.182330 0.694367
v -0.618263 1.262150 1.107333
v -0.594115 1.336317 1.107333
v -0.461142 1.336317 1.107333
v -0.461142 1.262150 1.107333
v -0.401184 0.849693 0.572907
v -0.644091 0.849693 0.572907
v -0.688205 1.046175 0.572907
v -0.401184 1.046175 0.572907
v -0.512927 0.849693 0.689509
v -0.755835 0.849693 0.689509
v -0.799948 1.046175 0.689509
v -0.512927 1.046175 0.689509
v -0.456589 0.875539 1.102474
v -0.606818 0.875539 1.102474
v -0.634101 0.959331 1.102474
v -0.456589 0.959331 1.102474
v -0.746676 1.299233 0.271685
v -0.659316 1.405847 -0.096082
v -0.684519 1.108334 -0.271685
v -0.659316 0.810822 -0.096082
v -0.746676 0.917435 0.271685
v -0.552011 0.932150 -0.226317
v 0.000000 0.726536 -0.271684
v 0.642183 0.800502 0.000000
v 0.684519 0.917435 0.271685
v 0.593513 1.143133 -0.243382
v 0.642183 1.425664 0.000000
v 0.000000 1.490132 -0.271685
v 0.684519 1.299233 0.271685
v -0.552011 1.284519 -0.226317
v -0.966447 1.115769 0.054648
v 0.797371 1.137744 -0.367110
v 0.841353 0.946605 -0.214164
v 0.837904 1.299863 -0.205759
v 1.003902 1.127693 -0.030949
v 1.049257 1.146136 -0.584208
v 1.075799 0.870600 -0.318651
v 1.065635 1.379838 -0.310391
v 1.078799 1.131647 -0.016230
v 1.255498 1.144025 -0.370659
v 1.269393 0.999784 -0.231643
v 1.264072 1.266366 -0.227319
v 1.270964 1.136440 -0.073328
v 1.516184 1.145156 -0.319859
v 1.523531 1.068889 -0.246355
v 1.520718 1.209844 -0.244068
v 1.524361 1.141146 -0.162646
v 0.817091 1.414897 -0.398317
v 0.771569 1.341731 -0.471136
v 0.885247 1.345518 -0.569115
v 0.892638 1.450991 -0.445539
v 0.738205 1.455674 -0.457878
v 0.716358 1.467644 -0.505950
v 0.770914 1.508932 -0.528525
v 0.774462 1.484014 -0.454643
v 0.879056 0.926800 -0.562272
v 0.820811 0.848046 -0.416217
v 0.779637 0.923488 -0.476584
v 0.645993 1.633704 -0.418320
v 0.889532 0.818047 -0.457457
v 0.776434 0.763213 -0.477672
v 0.745153 0.786053 -0.473524
v 0.771666 0.766071 -0.546366
v 0.726411 0.791915 -0.517113
v 0.654890 0.644804 -0.470075
v 0.694236 1.489858 -0.337330
v 0.754247 0.733711 -0.310296
vt 0.500000 0.000000
vt 0.625000 0.125000
vt 0.500000 0.250000
vt 0.500000 0.500000
vt 0.625000 0.375000
vt 0.625000 0.500000
vt 0.625000 0.625000
vt 0.500000 0.500000
vt 0.500000 0.750000
vt 0.625000 0.750000
vt 0.625000 0.875000
vt 0.250000 0.625000
vt 0.250000 0.750000
vt 0.250000 0.750000
vt 0.750000 0.500000
vt 0.875000 0.625000
vt 0.750000 0.750000
vt 0.375000 0.062500
vt 0.375000 0.125000
vt 0.375000 0.000000
vt 0.125000 0.625000
vt 0.250000 0.625000
vt 0.375000 0.562500
vt 0.375000 0.625000
vt 0.375000 0.500000
vt 0.250000 0.500000
vt 0.250000 0.625000
vt 0.250000 0.625000
vt 0.375000 0.625000
vt 0.250000 0.500000
vt 0.375000 0.500000
vt 0.375000 0.375000
vt 0.375000 0.375000
vt 0.375000 0.500000
vt 0.250000 0.500000
vt 0.375000 0.625000
vt 0.375000 0.375000
vt 0.250000 0.625000
vt 0.250000 0.750000
vt 0.375000 0.687500
vt 0.375000 0.750000
vt 0.375000 0.625000
vt 0.375000 0.750000
vt 0.375000 0.875000
vt 0.375000 0.625000
vt 0.250000 0.625000
vt 0.375000 0.750000
vt 0.125000 0.625000
vt 0.250000 0.625000
vt 0.125000 0.625000
vt 0.250000 0.625000
vt 0.375000 1.000000
vt 0.375000 0.875000
vt 0.375000 0.875000
vt 0.250000 0.750000
vt 0.250000 0.625000
vt 0.375000 1.000000
vt 0.375000 0.875000
vt 0.250000 0.750000
vt 0.375000 0.000000
vt 0.125000 0.750000
vt 0.125000 0.625000
vt 0.375000 0.125000
vt 0.375000 0.000000
vt 0.375000 1.000000
vt 0.375000 0.875000
vt 0.375000 0.125000
vt 0.375000 0.250000
vt 0.375000 0.125000
vt 0.375000 0.187500
vt 0.375000 0.250000
vt 0.250000 0.500000
vt 0.375000 0.250000
vt 0.375000 0.375000
vt 0.250000 0.500000
vt 0.250000 0.625000
vt 0.250000 0.500000
vt 0.375000 0.375000
vt 0.125000 0.625000
vt 0.250000 0.625000
vt 0.125000 0.500000
vt 0.125000 0.625000
vt 0.375000 0.250000
vt 0.375000 0.125000
vt 0.500000 1.000000
vt 0.375000 0.000000
vt 0.625000 0.000000
vt 0.625000 0.062500
vt 0.625000 0.187500
vt 0.625000 0.250000
vt 0.375000 0.125000
vt 0.375000 0.625000
vt 0.500000 0.750000
vt 0.875000 0.500000
vt 0.875000 0.562500
vt 0.875000 0.687500
vt 0.875000 0.750000
vt 0.375000 0.875000
vt 0.250000 0.750000
vt 0.375000 1.000000
vt 0.375000 0.125000
vt 0.125000 0.625000
vt 0.375000 0.375000
vt 0.625000 1.000000
vt 0.500000 0.000000
vt 0.625000 0.125000
vt 0.375000 0.625000
vt 0.500000 0.750000
vt 0.625000 0.625000
vt 0.500000 0.500000
vt 0.625000 0.625000
vt 0.625000 0.625000
vt 0.500000 0.750000
vt 0.500000 0.750000
vt 0.500000 0.500000
vt 0.625000 0.625000
vt 0.500000 0.500000
vt 0.375000 0.625000
vt 0.375000 0.625000
vt 0.500000 0.500000
vt 0.500000 0.750000
vt 0.625000 0.625000
vt 0.625000 0.625000
vt 0.625000 0.625000
vt 0.500000 0.750000
vt 0.625000 0.625000
vt 0.500000 0.750000
vt 0.500000 0.750000
vt 0.500000 0.750000
vt 0.625000 0.625000
vt 0.625000 0.625000
vt 0.625000 0.625000
vt 0.625000 0.625000
vt 0.500000 0.500000
vt 0.625000 0.625000
vt 0.625000 0.625000
vt 0.500000 0.500000
vt 0.500000 0.500000
vt 0.500000 0.500000
vt 0.500000 0.750000
vt 0.500000 0.500000
vn -0.9899 0.0000 0.1421
vn 0.3578 -0.6524 -0.6681
vn -0.3677 -0.5727 -0.7327
vn 0.3453 0.6701 -0.6571
vn -0.6289 0.2780 0.7261
vn 0.0000 -0.0000 -1.0000
vn -0.9046 0.2945 0.3082
vn -0.0481 0.9639 0.2619
vn 0.9657 0.0000 0.2597
vn -0.9831 0.0000 0.1830
vn 0.0000 0.9244 0.3815
vn -0.5352 -0.3021 0.7889
vn 0.1014 -0.9791 0.1760
vn 0.0000 0.0000 1.0000
vn 0.9831 0.0000 0.1830
vn 0.0000 0.9947 0.1033
vn 0.0000 -0.9947 0.1033
vn -0.9874 0.0000 0.1582
vn 0.9591 0.0000 0.2832
vn 0.0000 0.9892 0.1465
vn 0.0915 -0.8851 0.4563
vn 0.0000 0.9960 0.0890
vn 0.0000 -0.9960 0.0890
vn 0.9874 0.0000 0.1582
vn 0.0000 -1.0000 0.0000
vn 0.0000 -0.9702 0.2422
vn 0.3840 0.3302 0.8623
vn 0.0000 0.9702 0.2422
vn 0.9923 0.0000 -0.1235
vn 0.0000 1.0000 0.0000
vn 0.7490 0.0000 0.6626
vn -0.7277 0.2369 -0.6437
vn -0.8980 0.2924 0.3289
vn 0.0000 -0.9818 0.1898
vn 0.0000 0.9818 0.1898
vn -0.7127 -0.1600 -0.6830
vn -0.9388 -0.2108 0.2723
vn 0.5090 -0.3078 0.8038
vn 0.0000 -0.9256 0.3784
vn 0.9908 0.0000 -0.1352
vn 0.7220 0.0000 0.6919
vn 0.0000 -0.9980 0.0625
vn 0.0000 0.9786 0.2058
vn -0.9221 -0.2070 0.3268
vn 0.0019 0.9740 -0.2266
vn -0.1268 -0.9919 0.0000
vn -0.9422 0.3068 -0.1349
vn -0.5529 0.3316 -0.7644
vn -0.3883 -0.4926 -0.7788
vn -0.5529 -0.3316 -0.7644
vn -0.3883 0.4926 -0.7788
vn -0.9568 0.2451 -0.1562
vn -0.9422 -0.3068 -0.1349
vn -0.9568 -0.2451 -0.1562
vn -0.9377 -0.0000 -0.3474
vn 0.8193 -0.5618 0.1141
vn 0.6653 -0.3672 -0.6500
vn 0.5311 0.4986 -0.6850
vn 0.8174 0.5605 0.1334
vn 0.9726 -0.2260 -0.0543
vn 0.9730 0.2260 -0.0464
vn 0.6366 0.7580 0.1421
vn -0.4478 0.0000 0.8941
vn 0.2632 -0.3130 -0.9126
vn -0.1879 -0.2981 -0.9359
vn -0.2206 0.3955 -0.8916
vn -0.1879 0.2981 -0.9358
vn -0.2206 -0.3955 -0.8916
vn 0.2936 0.4327 -0.8524
vn 0.0476 -0.0000 -0.9989
vn -0.9270 0.2374 0.2905
vn 0.0000 0.9794 0.2021
vn 0.8247 -0.5655 0.0135
vn 0.9290 -0.2158 0.3008
vn 0.1015 0.8565 0.5061
vn -0.7162 0.0000 0.6979
vn 0.0000 -0.9975 0.0707
vn 0.9181 0.2133 0.3341
vn 0.8223 0.5639 0.0766
vn 0.0998 0.9637 0.2475
vn 0.0000 -0.9409 0.3387
vn -0.0576 -0.9479 0.3134
vn 0.5946 0.0000 0.8040
vn -0.9294 -0.2380 0.2821
vn -0.9216 -0.3001 0.2464
vn 0.3604 0.0000 0.9328
vn -0.8939 -0.2911 0.3408
vn 0.1030 0.9946 0.0075
vn -0.0376 0.9487 0.3141
vn -0.2310 0.8604 -0.4542
vn 0.0000 0.9747 -0.2234
vn 0.0000 -0.9747 -0.2234
vn -0.2310 -0.8604 -0.4542
vn 0.1144 -0.9934 0.0000
vn 0.1030 -0.9943 -0.0272
vn -0.6846 0.4126 -0.6009
vn -0.6954 -0.4080 -0.5915
vn 0.0273 0.7646 0.6439
vn -0.9829 -0.1052 0.1512
vn 0.6016 -0.6171 0.5072
vn -0.3556 0.7025 -0.6165
vn 0.5760 0.6044 -0.5503
vn 0.1687 0.7571 0.6312
vn 0.6395 0.5655 -0.5209
vn -0.1122 -0.6551 0.7471
vn 0.1432 -0.6796 -0.7195
vn 0.2370 -0.7366 0.6335
vn 0.2080 -0.7414 0.6379
vn 0.6133 -0.5167 -0.5974
vn 0.9994 0.0204 -0.0275
vn 0.9968 0.0212 -0.0777
vn 0.2065 0.7524 0.6255
vn 0.1231 0.7512 -0.6485
vn -0.3660 -0.0250 -0.9303
vn -0.8896 0.1131 0.4425
vn -0.5823 -0.4266 -0.6921
vn -0.0624 0.8538 0.5168
vn 0.7678 0.6174 0.1714
vn 0.2352 0.9243 0.3005
vn -0.8943 -0.3004 0.3316
vn -0.0221 0.8111 0.5846
vn 0.5988 -0.5251 -0.6047
vn -0.8336 -0.4889 0.2571
vn 0.0590 -0.1873 0.9805
vn -0.5113 0.2215 -0.8304
vn -0.5927 0.4463 -0.6704
vn -0.6056 0.4012 -0.6872
vn -0.1017 -0.8775 0.4687
vn -0.5443 -0.0036 -0.8389
vn -0.6862 0.1878 0.7027
vn 0.6520 -0.4927 -0.5763
vn -0.0527 -0.2479 0.9674
vn 0.5593 0.6220 0.5480
vn 0.1020 -0.0409 0.9939
vn -0.7686 0.5009 0.3979
vn 0.6932 -0.7165 -0.0779
vn -0.4173 -0.6244 -0.6603
vn -0.1839 0.6073 0.7728
vn -0.8922 -0.1447 0.4277
vn 0.6714 -0.7303 0.1262
vn -0.3105 0.6505 -0.6931
vn 0.0456 -0.7564 0.6525
vn -0.5769 -0.4427 -0.6864
vn -0.9834 0.0878 0.1588
vn -0.0696 0.8432 0.5331
vn 0.6303 0.5715 -0.5255
vn -0.6659 -0.2757 0.6932
vn -0.0800 -0.0114 0.9967
vn -0.4434 0.2100 -0.8714
vn -0.0911 -0.8914 0.4441
vn -0.8823 0.2305 0.4104
vn 0.4451 -0.8929 -0.0680
vn 0.0868 -0.7313 0.6765
vn -0.6093 -0.7080 -0.3571
vn 0.9006 -0.4196 0.1131
usemtl None
s off
f 55/1/1 56/2/1 57/3/1
f 61/4/2 60/5/2 8/6/2
f 63/7/3 70/8/3 61/4/3
f 64/9/4 6/10/4 65/11/4
f 13/12/5 22/13/5 12/14/5
f 60/15/6 56/16/6 65/17/6
f 54/18/7 30/19/7 31/20/7
f 9/21/8 45/22/8 13/12/8
f 62/23/9 14/24/9 15/25/9
f 16/26/10 21/27/10 17/28/10
f 11/29/11 17/28/11 14/24/11
f 10/30/12 17/28/12 13/12/12
f 7/31/13 16/32/13 10/33/13
f 19/34/14 21/27/14 20/35/14
f 14/24/15 19/34/15 15/25/15
f 17/28/16 18/36/16 14/24/16
f 15/25/17 20/37/17 16/32/17
f 25/38/18 26/39/18 22/13/18
f 66/40/19 23/41/19 24/42/19
f 5/43/20 22/44/20 23/41/20
f 11/29/21 25/38/21 13/12/21
f 28/45/14 26/39/14 29/46/14
f 22/44/22 27/47/22 23/41/22
f 24/42/23 29/46/23 25/38/23
f 23/41/24 28/45/24 24/42/24
f 30/48/25 37/49/25 34/50/25
f 9/21/26 33/51/26 30/48/26
f 12/14/27 33/51/27 13/12/27
f 1/52/28 32/53/28 12/54/28
f 36/55/29 41/56/29 37/49/29
f 31/57/30 36/58/30 32/53/30
f 32/59/31 37/49/31 33/51/31
f 30/19/32 35/60/32 31/20/32
f 41/56/14 39/61/14 38/62/14
f 35/60/33 38/63/33 39/64/33
f 37/49/34 38/62/34 34/50/34
f 36/58/35 39/65/35 40/66/35
f 44/67/36 47/68/36 48/69/36
f 58/70/37 43/71/37 44/67/37
f 13/12/38 42/72/38 10/30/38
f 3/73/39 42/74/39 43/71/39
f 46/75/40 53/76/40 50/77/40
f 45/22/41 46/75/41 42/72/41
f 43/71/25 46/78/25 47/68/25
f 44/79/30 49/80/30 45/22/30
f 51/81/14 53/76/14 52/82/14
f 46/78/42 51/83/42 47/68/42
f 49/80/43 52/82/43 53/76/43
f 47/68/44 52/84/44 48/69/44
f 64/9/45 55/85/45 12/54/45
f 10/33/46 57/3/46 60/5/46
f 54/18/47 1/86/47 55/1/47
f 55/1/48 2/87/48 67/88/48
f 56/2/49 59/89/49 57/3/49
f 59/89/50 4/90/50 57/3/50
f 55/1/51 67/88/51 56/2/51
f 9/91/52 54/18/52 55/1/52
f 3/73/53 58/70/53 57/3/53
f 58/70/54 9/91/54 57/3/54
f 9/91/55 55/1/55 57/3/55
f 62/23/56 7/31/56 61/4/56
f 61/4/57 8/6/57 63/7/57
f 63/7/58 6/10/58 64/9/58
f 64/9/59 5/43/59 66/40/59
f 11/29/60 62/23/60 61/4/60
f 64/9/61 66/40/61 11/29/61
f 64/9/62 72/92/62 71/93/62
f 13/12/63 25/38/63 22/13/63
f 63/7/64 8/6/64 60/15/64
f 60/15/65 4/94/65 59/95/65
f 56/16/66 67/96/66 65/17/66
f 67/96/67 2/97/67 65/17/67
f 60/15/68 59/95/68 56/16/68
f 6/10/69 63/7/69 65/17/69
f 63/7/70 60/15/70 65/17/70
f 31/20/7 1/86/7 54/18/7
f 54/18/71 9/91/71 30/19/71
f 9/21/72 44/79/72 45/22/72
f 15/25/73 7/31/73 62/23/73
f 62/23/74 11/29/74 14/24/74
f 16/26/10 20/35/10 21/27/10
f 11/29/75 13/12/75 17/28/75
f 10/30/76 16/26/76 17/28/76
f 7/31/77 15/25/77 16/32/77
f 19/34/14 18/36/14 21/27/14
f 14/24/15 18/36/15 19/34/15
f 17/28/16 21/27/16 18/36/16
f 15/25/17 19/34/17 20/37/17
f 25/38/18 29/46/18 26/39/18
f 24/42/78 11/29/78 66/40/78
f 66/40/79 5/43/79 23/41/79
f 5/43/80 12/54/80 22/44/80
f 11/29/81 24/42/81 25/38/81
f 28/45/14 27/47/14 26/39/14
f 22/44/22 26/98/22 27/47/22
f 24/42/23 28/45/23 29/46/23
f 23/41/24 27/47/24 28/45/24
f 30/48/25 33/51/25 37/49/25
f 9/21/82 13/12/82 33/51/82
f 12/14/83 32/59/83 33/51/83
f 1/52/28 31/57/28 32/53/28
f 36/55/29 40/99/29 41/56/29
f 31/57/30 35/100/30 36/58/30
f 32/59/31 36/55/31 37/49/31
f 30/19/32 34/101/32 35/60/32
f 41/56/14 40/99/14 39/61/14
f 35/60/33 34/101/33 38/63/33
f 37/49/34 41/56/34 38/62/34
f 36/58/35 35/100/35 39/65/35
f 44/67/36 43/71/36 47/68/36
f 44/67/84 9/91/84 58/70/84
f 58/70/85 3/73/85 43/71/85
f 13/12/86 45/22/86 42/72/86
f 3/73/39 10/33/39 42/74/39
f 46/75/40 49/80/40 53/76/40
f 45/22/41 49/80/41 46/75/41
f 43/71/25 42/74/25 46/78/25
f 44/79/30 48/102/30 49/80/30
f 51/81/14 50/77/14 53/76/14
f 46/78/42 50/103/42 51/83/42
f 49/80/43 48/102/43 52/82/43
f 47/68/87 51/83/87 52/84/87
f 12/54/88 5/43/88 64/9/88
f 64/9/89 65/11/89 55/85/89
f 65/11/90 2/104/90 55/85/90
f 55/85/91 1/52/91 12/54/91
f 10/33/92 3/73/92 57/3/92
f 57/3/93 4/90/93 60/5/93
f 60/5/94 61/4/94 10/33/94
f 61/4/95 7/31/95 10/33/95
f 55/1/96 56/2/96 68/105/96
f 56/2/97 57/3/97 68/106/97
f 71/93/98 76/107/98 75/108/98
f 69/109/99 94/110/99 70/8/99
f 61/4/100 72/92/100 11/29/100
f 63/7/101 71/93/101 69/109/101
f 75/108/102 77/111/102 73/112/102
f 76/107/103 79/113/103 75/108/103
f 73/112/104 88/114/104 75/108/104
f 70/8/105 76/107/105 72/92/105
f 78/115/106 81/116/106 82/117/106
f 78/115/107 84/118/107 80/119/107
f 76/107/108 78/115/108 80/119/108
f 74/120/109 77/111/109 78/115/109
f 82/117/110 83/121/110 84/118/110
f 82/117/111 81/116/111 83/121/111
f 79/113/112 84/118/112 83/121/112
f 79/113/113 81/116/113 77/111/113
f 87/122/114 90/123/114 91/124/114
f 69/109/115 85/125/115 86/126/115
f 73/112/116 86/126/116 87/122/116
f 75/108/117 85/125/117 71/93/117
f 92/127/118 91/124/118 96/128/118
f 88/114/119 91/124/119 92/127/119
f 86/126/120 89/129/120 90/123/120
f 88/114/121 89/129/121 85/125/121
f 74/120/122 93/130/122 73/112/122
f 90/123/123 89/129/123 96/131/123
f 89/129/124 92/127/124 96/128/124
f 91/124/125 90/123/125 96/131/125
f 93/130/126 101/132/126 95/133/126
f 73/112/127 95/133/127 69/109/127
f 74/120/128 94/110/128 97/134/128
f 101/132/129 100/135/129 102/136/129
f 95/133/130 99/137/130 94/110/130
f 97/134/131 100/135/131 93/130/131
f 97/134/132 99/137/132 98/138/132
f 64/9/133 11/29/133 72/92/133
f 98/138/134 99/137/134 102/139/134
f 99/137/135 101/132/135 102/139/135
f 100/135/136 98/138/136 102/136/136
f 63/7/137 69/109/137 70/8/137
f 71/93/138 72/92/138 76/107/138
f 69/109/139 95/133/139 94/110/139
f 61/4/140 70/8/140 72/92/140
f 63/7/141 64/9/141 71/93/141
f 75/108/102 79/113/102 77/111/102
f 76/107/103 80/119/103 79/113/103
f 73/112/104 87/122/104 88/114/104
f 70/8/142 74/120/142 76/107/142
f 78/115/106 77/111/106 81/116/106
f 78/115/107 82/117/107 84/118/107
f 76/107/108 74/120/108 78/115/108
f 74/120/109 73/112/109 77/111/109
f 79/113/112 80/119/112 84/118/112
f 79/113/113 83/121/113 81/116/113
f 87/122/143 86/126/143 90/123/143
f 69/109/144 71/93/144 85/125/144
f 73/112/116 69/109/116 86/126/116
f 75/108/145 88/114/145 85/125/145
f 88/114/146 87/122/146 91/124/146
f 86/126/147 85/125/147 89/129/147
f 88/114/148 92/127/148 89/129/148
f 74/120/122 97/134/122 93/130/122
f 93/130/149 100/135/149 101/132/149
f 73/112/127 93/130/127 95/133/127
f 74/120/150 70/8/150 94/110/150
f 95/133/151 101/132/151 99/137/151
f 97/134/152 98/138/152 100/135/152
f 97/134/153 94/110/153 99/137/153
f 85/125/154 71/93/154 103/140/154
f 94/110/155 70/8/155 104/141/155
